<svg width="1117" height="1213" viewBox="0 0 1117 1213" fill="none" xmlns="http://www.w3.org/2000/svg">
<g clip-path="url(#clip0_1560_452)">
<path d="M628.392 375.998C628.392 394.681 624.364 408.841 616.176 418.45C607.989 428.143 597.646 434.349 584.837 437.076C572.104 439.802 556.557 441.231 538.186 441.231H510.96V316.661C514.395 316.661 519.957 316.557 527.712 316.397C535.391 316.153 541.358 316.049 545.423 316.049C561.422 316.049 575.332 317.479 587.341 320.309C599.34 323.148 609.146 328.865 616.901 337.741C624.581 346.475 628.392 359.262 628.392 375.998ZM755.443 524.752C747.434 535.283 735.858 543.444 723.642 552.122C720.141 554.567 716.716 557.03 713.921 559.089C669.095 590.098 620.656 621.906 558.486 661.151C506.066 627.754 452.441 593.37 401.339 557.782L392.163 551.248C348.552 520.135 326.407 476.217 326.407 425.426L326.341 218.736C326.228 152.581 326.162 86.4739 326.228 20.3759H790.678L790.744 425.464C790.744 459.256 777.587 496.696 755.452 524.752H755.443ZM816.907 0.0011015H300.065V8.59479C299.886 80.0521 300.065 151.481 300.065 222.976L300.112 431.133C300.178 490.471 328.478 540.623 376.296 575.007L385.189 581.354C440.404 619.894 497.069 656.017 553.799 692.103L558.383 695.046L563.022 692.103C619.197 656.798 674.921 620.824 729.515 583.055C732.969 580.554 736.187 578.26 739.397 575.976C788.824 541.112 817.02 491.017 817.02 430.315L816.907 -0.00830078V0.0011015ZM703.559 433.051C695.964 449.788 685.057 463.393 670.799 473.857C657.049 483.833 641.822 490.321 625.089 493.207C608.215 496.037 587.924 497.448 564.199 497.448H401.997C415.051 488.083 423.342 478.013 426.928 467.219C430.466 456.538 432.273 442.313 432.273 424.806V183.026C432.273 167.879 431.765 155.684 430.777 146.31C429.657 136.945 426.928 127.552 422.504 118.301C418.015 109.049 411.324 100.982 401.997 94.0898H571.511C593.505 94.0898 614.379 97.6532 634.039 104.733C653.717 111.747 669.641 122.823 681.989 138.064C694.251 153.277 700.406 172.298 700.406 195.136C700.406 211.035 697.677 224.556 692.162 235.387C686.619 246.407 678.873 255.442 668.832 262.654C658.799 269.884 646.142 276.409 630.914 282.267C655.43 287.316 675.608 298.599 691.343 316.143C707.116 333.604 714.975 354.73 714.975 379.524C714.975 398.498 711.097 416.306 703.568 433.033L703.559 433.051ZM781.973 31.4423H334.783C334.783 94.7009 334.915 157.922 334.915 221.18L334.952 427.937C334.952 477.289 357.097 517.945 397.188 546.725L406.185 553.203C456.027 587.879 507.195 620.768 558.467 653.413C609.193 621.313 659.581 588.688 708.726 554.567C712.029 552.178 715.266 549.884 718.607 547.552C728.866 540.275 740.789 532.114 748.601 521.875C768.957 496.084 782.029 460.741 782.029 427.937L781.963 31.4517L781.973 31.4423ZM621.748 204.886C621.748 227.555 614.04 242.401 598.728 249.34C583.407 256.27 562.618 259.833 536.389 259.833H510.969V150.936C514.178 150.936 519.637 150.851 527.1 150.673C534.582 150.447 540.323 150.344 544.238 150.344C567.963 150.344 586.842 153.992 600.865 161.25C614.774 168.481 621.748 183.035 621.748 204.886Z" fill="#D2AE6D"/>
<path d="M31.8475 1197.99C31.8475 1197.99 27.2455 1187.32 23.161 1177C17.4296 1162.51 15.7827 1159.12 15.7827 1156.96C15.7827 1154.62 17.3449 1154.27 19.9518 1154.01L22.8128 1153.75V1152.02C22.8128 1152.02 20.9964 1152.1 18.6437 1152.1C16.3003 1152.19 13.3452 1152.27 11.0865 1152.27C8.92194 1152.27 6.13624 1152.19 3.96227 1152.1C1.70359 1152.1 0.0566406 1152.02 0.0566406 1152.02V1153.75L1.44949 1153.84C4.74339 1154.01 5.70333 1155.32 6.65386 1157.74C8.82783 1163.04 11.9523 1170.93 15.2556 1179.09C21.8623 1195.48 28.8077 1213.01 28.8077 1213.01C31.2452 1206.32 29.0618 1212.05 37.3154 1191.4C41.8327 1180.12 43.3009 1176.48 43.3009 1176.48L49.9075 1192.88C54.4249 1203.97 57.8976 1213.01 57.8976 1213.01C59.9774 1207.1 62.4902 1201.29 70.9132 1180.03C73.6895 1173.01 76.7293 1165.72 79.1668 1159.57C80.5596 1156.1 81.689 1154.19 84.4652 1153.93L86.291 1153.76V1152.03C86.291 1152.03 85.3311 1152.11 83.7688 1152.11C82.2913 1152.2 80.202 1152.28 77.8586 1152.28C76.3811 1152.28 74.0377 1152.19 71.9484 1152.11C69.9532 1152.11 68.3063 1152.03 68.3063 1152.03V1153.76L70.9979 1153.93C74.4706 1154.2 75.5999 1156.1 75.5999 1157.84C75.5999 1160.44 74.4706 1163.04 69.7839 1175.01L60.7491 1197.92C60.7491 1197.92 56.2318 1187.25 52.2415 1177.01C46.5101 1162.43 44.8631 1159.31 44.8631 1156.97C44.8631 1154.63 46.4254 1154.28 49.0229 1154.02L51.8932 1153.76V1152.03C51.8932 1152.03 50.1522 1152.11 47.8088 1152.11C45.4654 1152.2 42.5197 1152.28 40.2517 1152.28C38.0777 1152.28 35.3014 1152.19 33.0427 1152.11C30.8782 1152.11 29.1371 1152.03 29.1371 1152.03V1153.76L30.9534 1153.85C33.5603 1153.93 34.7744 1155.33 35.7343 1157.75L41.8233 1172.85L31.8381 1198.01L31.8475 1197.99ZM120.557 1208.75L116.473 1208.32C114.044 1208.05 112.821 1207.1 112.727 1204.41C112.642 1200.16 112.558 1190.01 112.558 1181.33C112.558 1172.66 112.558 1162.33 112.727 1158.08C112.821 1155.39 114.035 1154.44 116.473 1154.18L120.557 1153.75V1152.02C120.557 1152.02 118.477 1152.1 116.04 1152.1C113.517 1152.19 110.572 1152.27 108.831 1152.27C107.09 1152.27 104.229 1152.19 101.791 1152.1C99.3631 1152.1 97.3585 1152.02 97.3585 1152.02V1153.75L100.747 1154.09C102.921 1154.36 104.313 1154.62 104.492 1158.08C104.662 1162.34 104.662 1172.66 104.662 1181.25C104.662 1189.92 104.662 1200.16 104.492 1204.41C104.313 1207.88 102.921 1208.15 100.747 1208.4L97.3585 1208.75V1210.49L101.791 1210.32C104.144 1210.32 107.005 1210.23 108.737 1210.23C112.209 1210.23 120.548 1210.49 120.548 1210.49V1208.75H120.557ZM200.411 1153.75V1152.02C200.411 1152.02 198.942 1152.1 197.023 1152.1C195.027 1152.19 192.684 1152.27 190.943 1152.27C189.202 1152.27 186.774 1152.19 184.779 1152.1C182.784 1152.1 181.221 1152.02 181.221 1152.02V1153.75L182.868 1153.84C187.903 1154.09 189.644 1155.32 189.729 1159.05C189.898 1166.6 189.898 1171.54 189.898 1179.18V1196.27C189.898 1196.27 178.351 1182.83 171.321 1174.58L152.131 1152.03C152.131 1152.03 151.171 1152.11 149.957 1152.11C148.743 1152.2 147.435 1152.28 146.664 1152.28C145.534 1152.28 143.624 1152.19 141.619 1152.11C139.624 1152.11 137.629 1152.03 136.151 1152.03V1153.76C136.763 1153.76 137.892 1153.85 137.892 1153.85C141.713 1154.02 144.057 1155.59 144.151 1157.84C144.33 1161.48 144.066 1170.76 144.066 1180.83C144.066 1189.78 144.066 1194.89 143.897 1203.65C143.803 1207.64 141.374 1208.51 139.728 1208.6L136.857 1208.77V1210.51C136.857 1210.51 138.335 1210.41 140.245 1210.34C142.165 1210.34 144.508 1210.25 146.24 1210.25C147.981 1210.25 150.503 1210.34 152.574 1210.34L156.31 1210.51V1208.77L154.578 1208.68C150.409 1208.51 147.793 1206.94 147.718 1203.48C147.539 1195.93 147.539 1191.07 147.539 1183.44V1159.76L165.081 1180.15C179.753 1197.15 190.444 1209.3 191.743 1211.3H193.305V1181.79C193.305 1172.85 193.305 1162.62 193.484 1158.89C193.653 1155.42 195.225 1154.11 197.568 1153.94L200.429 1153.76L200.411 1153.75ZM262.985 1195.22H261.244C258.026 1205.36 256.294 1207.45 247.353 1207.45H237.443C229.199 1207.45 228.503 1206.85 228.324 1202.07C228.155 1197.21 228.155 1189.66 228.155 1181.51H239.872C243.175 1181.51 245.688 1181.6 247.429 1182.29C250.384 1183.41 251.08 1188.1 251.08 1190.88H252.812C252.812 1190.88 252.548 1186.63 252.548 1179.42C252.548 1174.05 252.548 1173.52 252.727 1169.28H251.08C250.986 1172.05 250.647 1175.87 248.125 1177.52C246.309 1178.74 243.523 1178.64 239.872 1178.64H228.155C228.155 1169.18 228.239 1155.13 228.239 1155.13H246.911C254.12 1155.13 254.986 1157.22 256.633 1166.23H258.374C258.374 1166.23 257.95 1162.41 257.772 1158.42C257.677 1156.77 257.602 1155.21 257.508 1151.74C247.175 1152.26 245.264 1152.26 235.448 1152.26C228.936 1152.26 223.204 1152.26 212.099 1152.09V1153.83L214.527 1154C217.821 1154.26 219.732 1154.78 219.911 1158.16C220.08 1162.42 220.08 1172.65 220.08 1181.25C220.08 1189.92 220.08 1200.16 219.911 1204.41C219.732 1207.88 218.339 1208.15 216.174 1208.4L212.786 1208.75V1210.49C222.762 1210.32 226.762 1210.23 234.319 1210.23C238.827 1210.23 242.13 1210.32 245.866 1210.32C249.509 1210.32 253.593 1210.49 259.673 1210.74L260.2 1208.23L262.976 1195.22H262.985ZM277.196 1208.75V1210.49L281.629 1210.32C283.972 1210.32 286.833 1210.23 288.565 1210.23C290.306 1210.23 293.346 1210.32 295.858 1210.32L300.545 1210.49V1208.75L296.461 1208.32C294.033 1208.05 292.819 1207.1 292.725 1204.41C292.63 1200.16 292.555 1192.96 292.555 1184.28C292.555 1184.28 296.376 1184.55 297.938 1184.63C300.282 1184.8 301.58 1184.72 302.456 1185.85C302.71 1186.19 307.575 1192.88 311.227 1197.56C314.963 1202.33 316.61 1204.67 321.127 1208.66C323.301 1210.58 324.421 1210.84 330.416 1210.84C334.501 1210.84 337.277 1210.49 337.277 1210.49V1208.75H335.282C332.411 1208.75 328.158 1204.93 318.172 1193.48C314.605 1189.4 309.138 1182.71 309.138 1182.71C310.785 1181.85 321.382 1176.3 321.382 1165.89C321.382 1158.95 316.695 1152.01 301.844 1152.01C299.849 1152.01 297.505 1152.09 295.247 1152.09C292.988 1152.19 290.814 1152.26 289.082 1152.26C287.351 1152.26 284.217 1152.18 281.525 1152.09C278.749 1152.09 276.49 1152.01 276.49 1152.01V1153.74L278.928 1153.92C282.222 1154.18 284.132 1154.7 284.311 1158.07C284.48 1162.33 284.48 1172.22 284.48 1181.24C284.48 1189.91 284.48 1200.24 284.311 1204.49C284.132 1207.95 282.739 1208.13 280.575 1208.39L277.187 1208.74L277.196 1208.75ZM292.565 1154.87C296.207 1154.61 295.858 1154.61 298.992 1154.61C307.942 1154.61 312.45 1160.68 312.45 1167.54C312.45 1177.68 307.152 1182.29 302.371 1182.29C301.326 1182.29 297.769 1182.29 292.565 1181.68V1154.87ZM365.906 1153.75V1152.02C365.906 1152.02 363.826 1152.1 361.219 1152.1C358.621 1152.27 355.488 1152.35 353.408 1152.35C351.234 1152.35 348.636 1152.27 346.462 1152.19C344.373 1152.09 342.82 1152.01 342.82 1152.01V1153.74L344.382 1153.92C346.81 1154.18 347.855 1155.13 349.069 1156.6C349.681 1157.22 355.233 1165.2 359.845 1171.26C361.407 1173.35 367.835 1182.71 367.835 1182.71C367.835 1191.04 367.835 1200.41 367.656 1204.41C367.487 1207.87 366.009 1208.04 363.572 1208.31L359.581 1208.74V1210.48L364.522 1210.31C367.214 1210.31 370.338 1210.23 372.079 1210.23C373.811 1210.23 376.851 1210.31 379.542 1210.31L384.323 1210.48V1208.74L380.239 1208.31C377.811 1208.04 376.333 1207.44 376.249 1204.41C376.154 1199.98 376.07 1189.4 376.07 1180.2C376.07 1180.2 380.154 1174.65 383.975 1169.79C391.099 1160.68 393.612 1157.03 396.05 1155.31C397.264 1154.43 398.826 1153.92 400.219 1153.83L401.612 1153.74V1152.01C401.612 1152.01 400.388 1152.09 398.656 1152.09C396.915 1152.26 394.751 1152.34 392.84 1152.34C391.024 1152.34 388.502 1152.26 386.413 1152.18C384.323 1152.08 382.77 1152 382.77 1152V1153.73L385.02 1153.82C386.94 1153.91 388.935 1154.42 388.935 1156.59C388.935 1158.76 385.716 1163.02 381.378 1168.65C379.034 1171.69 374.432 1177.76 374.432 1177.76C374.432 1177.76 370.959 1172.9 367.054 1167.52C360.89 1158.93 359.93 1157.54 359.93 1155.9C359.93 1154.33 361.671 1154.07 363.666 1153.91L365.915 1153.73L365.906 1153.75ZM496.824 1209.35L496.655 1207.71C496.655 1207.71 495.78 1207.97 494.481 1207.97C492.655 1207.97 489.7 1207.8 486.67 1205.88C483.714 1203.97 480.853 1201.8 477.202 1198.69C477.202 1198.69 479.122 1194.87 479.461 1193.74C480.063 1192 481.023 1189.31 481.456 1187.67C482.058 1185.59 482.849 1182.38 484.326 1180.9C485.098 1180.2 485.973 1179.77 486.67 1179.59C489.013 1179.08 491.45 1179.17 491.45 1179.17V1177.43C491.45 1177.43 485.023 1177.6 480.675 1177.6C476.421 1177.6 469.824 1177.43 469.824 1177.43V1179.17C469.824 1179.17 471.471 1179.17 474.595 1179.52C477.635 1179.87 478.416 1181.86 478.416 1184.63C478.416 1187.24 477.72 1190.44 477.117 1192.18C476.242 1194.78 475.028 1196.86 475.028 1196.86C475.028 1196.86 471.461 1193.83 464.779 1186.63C461.476 1183.16 457.918 1179.42 454.794 1175.78C460.356 1172.83 468.252 1168.15 468.252 1161.64C468.252 1155.22 462.088 1151.5 455.302 1151.5C445.844 1151.5 439.764 1157.31 439.764 1164.77C439.764 1168.86 442.287 1173.19 446.192 1178.05C443.849 1179.61 441.157 1181.44 438.899 1183.78C435.605 1187.08 433.082 1191.33 433.082 1196.27C433.082 1201.39 435.689 1204.94 439.51 1207.63C443.247 1210.23 448.46 1211.28 453.834 1211.28C461.043 1211.28 466.596 1209.29 471.809 1204.94C476.581 1208.85 481.098 1211.36 485.267 1211.45C490.735 1211.54 496.815 1209.36 496.815 1209.36L496.824 1209.35ZM462.351 1161.8C462.351 1167.45 459.311 1170.31 455.66 1172.48C454.963 1172.91 453.232 1173.87 453.232 1173.87C449.411 1169.18 446.719 1164.67 446.719 1160.85C446.719 1156.43 450.277 1153.83 454.53 1153.83C458.436 1153.83 462.342 1155.92 462.342 1161.8H462.351ZM469.729 1203.19C465.56 1206.84 460.092 1207.62 456.968 1207.62C449.232 1207.62 440.903 1202.94 440.903 1191.75C440.903 1185.24 444.715 1181.86 447.764 1179.87C450.107 1182.55 452.705 1185.59 455.575 1188.71C460.083 1193.74 465.127 1198.95 469.729 1203.19ZM525.886 1208.75V1210.49L530.573 1210.32C533.095 1210.32 536.04 1210.23 537.781 1210.23C539.523 1210.23 542.299 1210.32 545.423 1210.32C548.548 1210.4 552.03 1210.49 555.333 1210.49C565.488 1210.49 572.782 1208.5 579.388 1202.07C584.95 1196.69 587.896 1188.11 587.896 1179.52C587.896 1170.49 584.856 1162.94 576.433 1157.04C570.354 1152.79 562.533 1152.01 551.766 1152.01C549.169 1152.01 546.299 1152.09 543.776 1152.09C541.179 1152.19 538.836 1152.26 537.094 1152.26C533.528 1152.26 525.199 1152.09 525.199 1152.09V1153.83L527.627 1154C530.921 1154.26 532.831 1154.78 533.01 1158.16C533.179 1162.42 533.179 1172.22 533.179 1181.25C533.179 1189.92 533.179 1200.16 533.01 1204.41C532.831 1207.88 531.438 1208.15 529.274 1208.4L525.886 1208.75ZM578.588 1181.07C578.588 1190.96 575.897 1197.72 571.812 1201.73C567.38 1206.06 561.046 1207.71 553.668 1207.71C541.857 1207.71 541.518 1205.53 541.424 1202.33C541.254 1197.03 541.254 1188.27 541.254 1179.34C541.254 1170.14 541.254 1159.65 541.339 1155.14C541.339 1155.14 545.941 1154.79 550.628 1154.79C557.837 1154.79 563.653 1155.83 568.688 1159.22C575.2 1163.65 578.588 1171.88 578.588 1181.08V1181.07ZM626.849 1208.75L622.764 1208.32C620.327 1208.05 619.103 1207.1 619.019 1204.41C618.934 1200.16 618.849 1190.01 618.849 1181.33C618.849 1172.66 618.849 1162.33 619.019 1158.08C619.113 1155.39 620.327 1154.44 622.764 1154.18L626.849 1153.75V1152.02C626.849 1152.02 624.759 1152.1 622.331 1152.1C619.8 1152.19 616.854 1152.27 615.113 1152.27C613.372 1152.27 610.511 1152.19 608.073 1152.1C605.645 1152.1 603.641 1152.02 603.641 1152.02V1153.75L607.029 1154.09C609.203 1154.36 610.596 1154.62 610.774 1158.08C610.944 1162.34 610.944 1172.66 610.944 1181.25C610.944 1189.92 610.944 1200.16 610.774 1204.41C610.596 1207.88 609.203 1208.15 607.029 1208.4L603.641 1208.75V1210.49L608.073 1210.32C610.426 1210.32 613.287 1210.23 615.019 1210.23C618.492 1210.23 626.839 1210.49 626.839 1210.49V1208.75H626.849ZM664.766 1154.27C675.617 1154.27 677.434 1160.35 678.403 1165.72L678.666 1167.2H680.407C680.407 1167.2 680.059 1161.81 680.059 1157.83C680.059 1155.83 680.313 1152.27 680.144 1152.45C680.144 1152.45 678.488 1152.7 677.443 1152.7C674.751 1152.7 669.716 1151.49 664.681 1151.49C648.701 1151.49 645.313 1162.25 645.313 1166.94C645.313 1176.22 650.781 1178.74 661.303 1184.11C668.766 1187.92 676.144 1189.83 676.144 1197.65C676.144 1203.63 672.06 1208.49 662.075 1208.49C648.711 1208.49 646.01 1200.68 643.92 1193.91H642.189C642.189 1193.91 643.92 1203.02 644.269 1205.62L644.88 1210.22C644.88 1210.22 648.005 1209.95 649.313 1209.95C651.656 1209.95 656.437 1211.25 662.159 1211.25C672.587 1211.25 683.438 1205.61 683.438 1193.46C683.438 1184.78 676.144 1181.92 665.726 1176.97C656.437 1172.55 652.259 1170.56 652.259 1163.61C652.259 1160.49 653.83 1154.24 664.766 1154.24V1154.27ZM752.516 1166.24C752.516 1166.24 751.819 1157.3 751.819 1154.09V1150.11H750.953C750.426 1151.5 749.222 1152.02 742.794 1152.02C739.491 1152.02 737.58 1152.27 725.506 1152.27C715.953 1152.27 709.441 1152.02 707.446 1152.02C703.361 1152.02 700.839 1151.85 700.321 1150.11H699.446V1154.09C699.446 1156.78 698.75 1166.24 698.75 1166.24H700.491C700.491 1166.24 701.018 1159.82 702.75 1157.65C704.839 1155.04 706.834 1155.22 714.561 1155.22C718.909 1155.22 721.421 1155.31 721.421 1155.31C721.515 1169.7 721.515 1172.65 721.515 1181.25C721.515 1189.92 721.515 1200.16 721.337 1204.41C721.167 1207.88 719.69 1208.05 717.252 1208.32L713.168 1208.75V1210.49L718.212 1210.32C720.988 1210.32 724.113 1210.23 725.854 1210.23C727.595 1210.23 730.635 1210.32 733.242 1210.32L737.928 1210.49V1208.75L733.844 1208.32C731.406 1208.05 729.854 1207.45 729.76 1204.41C729.665 1200.16 729.581 1190.01 729.581 1181.33C729.581 1172.66 729.581 1169.28 729.665 1155.31C729.665 1155.31 733.138 1155.22 736.696 1155.22C745.213 1155.22 746.511 1155.22 748.516 1157.65C750.248 1159.81 750.765 1166.24 750.765 1166.24H752.506H752.516ZM790.781 1208.75L786.706 1208.32C784.269 1208.05 783.055 1207.1 782.961 1204.41C782.876 1200.16 782.791 1190.01 782.791 1181.33C782.791 1172.66 782.791 1162.33 782.961 1158.08C783.055 1155.39 784.269 1154.44 786.706 1154.18L790.781 1153.75V1152.02C790.781 1152.02 788.702 1152.1 786.264 1152.1C783.742 1152.19 780.796 1152.27 779.055 1152.27C777.314 1152.27 774.453 1152.19 772.016 1152.1C769.588 1152.1 767.583 1152.02 767.583 1152.02V1153.75L770.971 1154.09C773.145 1154.36 774.538 1154.62 774.717 1158.08C774.886 1162.34 774.886 1172.66 774.886 1181.25C774.886 1189.92 774.886 1200.16 774.717 1204.41C774.538 1207.88 773.145 1208.15 770.971 1208.4L767.583 1208.75V1210.49L772.016 1210.32C774.368 1210.32 777.229 1210.23 778.961 1210.23C782.434 1210.23 790.772 1210.49 790.772 1210.49V1208.75H790.781ZM853.526 1195.2H851.794C848.491 1205.53 847.013 1207.27 837.461 1207.27H829.132C823.052 1207.27 822.356 1206.5 822.271 1201.98C822.092 1193.9 822.008 1189.97 822.008 1181.29C822.008 1172.6 822.008 1162.25 822.177 1158C822.356 1154.53 824.266 1154.08 826.44 1153.92L830.346 1153.65V1152.01C825.838 1152.01 820.972 1152.19 818.102 1152.19C816.361 1152.19 813.509 1152.09 811.072 1152.01C808.634 1152.09 806.639 1152.01 806.639 1152.01V1153.65L810.027 1154.08C812.192 1154.35 813.585 1154.61 813.763 1158.07C813.933 1162.33 813.933 1172.65 813.933 1181.24C813.933 1189.91 813.933 1200.15 813.763 1204.41C813.585 1207.87 812.192 1208.14 810.027 1208.39L806.639 1208.74V1210.48C818.883 1210.31 822.356 1210.23 830.431 1210.23C833.725 1210.23 836.077 1210.23 838.854 1210.31C841.724 1210.31 845.018 1210.48 850.316 1210.73L850.928 1207.17C851.276 1205.36 853.526 1195.2 853.526 1195.2ZM914.275 1195.2H912.543C909.24 1205.53 907.762 1207.27 898.21 1207.27H889.881C883.801 1207.27 883.105 1206.5 883.02 1201.98C882.841 1193.9 882.757 1189.97 882.757 1181.29C882.757 1172.6 882.757 1162.25 882.926 1158C883.105 1154.53 885.015 1154.08 887.189 1153.92L891.095 1153.65V1152.01C886.587 1152.01 881.721 1152.19 878.851 1152.19C877.119 1152.19 874.258 1152.09 871.821 1152.01C869.393 1152.09 867.388 1152.01 867.388 1152.01V1153.65L870.776 1154.08C872.941 1154.35 874.334 1154.61 874.512 1158.07C874.682 1162.33 874.682 1172.65 874.682 1181.24C874.682 1189.91 874.682 1200.15 874.512 1204.41C874.334 1207.87 872.941 1208.14 870.776 1208.39L867.388 1208.74V1210.48C879.632 1210.31 883.105 1210.23 891.18 1210.23C894.474 1210.23 896.826 1210.23 899.603 1210.31C902.473 1210.31 905.767 1210.48 911.075 1210.73L911.677 1207.17C912.025 1205.36 914.275 1195.2 914.275 1195.2ZM978.336 1195.22H976.595C973.376 1205.36 971.645 1207.45 962.704 1207.45H952.794C944.55 1207.45 943.854 1206.85 943.675 1202.07C943.506 1197.21 943.506 1189.66 943.506 1181.51H955.222C958.526 1181.51 961.039 1181.6 962.78 1182.29C965.735 1183.41 966.431 1188.1 966.431 1190.88H968.163C968.163 1190.88 967.899 1186.63 967.899 1179.42C967.899 1174.05 967.899 1173.52 968.078 1169.28H966.431C966.337 1172.05 965.998 1175.87 963.476 1177.52C961.66 1178.74 958.874 1178.64 955.222 1178.64H943.506C943.506 1169.18 943.59 1155.13 943.59 1155.13H962.262C969.471 1155.13 970.337 1157.22 971.984 1166.23H973.725C973.725 1166.23 973.301 1162.41 973.122 1158.42C973.028 1156.77 972.953 1155.21 972.859 1151.74C962.525 1152.26 960.615 1152.26 950.799 1152.26C944.287 1152.26 938.555 1152.26 927.45 1152.09V1153.83L929.878 1154C933.172 1154.26 935.083 1154.78 935.261 1158.16C935.431 1162.42 935.431 1172.65 935.431 1181.25C935.431 1189.92 935.431 1200.16 935.261 1204.41C935.083 1207.88 933.69 1208.15 931.525 1208.4L928.137 1208.75V1210.49C938.113 1210.32 942.113 1210.23 949.67 1210.23C954.178 1210.23 957.481 1210.32 961.217 1210.32C964.859 1210.32 968.944 1210.49 975.023 1210.74L975.55 1208.23L978.327 1195.22H978.336ZM992.547 1208.75V1210.49L996.98 1210.32C999.323 1210.32 1002.18 1210.23 1003.92 1210.23C1005.66 1210.23 1008.7 1210.32 1011.21 1210.32L1015.9 1210.49V1208.75L1011.81 1208.32C1009.38 1208.05 1008.17 1207.1 1008.08 1204.41C1007.98 1200.16 1007.91 1192.96 1007.91 1184.28C1007.91 1184.28 1011.73 1184.55 1013.29 1184.63C1015.63 1184.8 1016.93 1184.72 1017.81 1185.85C1018.06 1186.19 1022.93 1192.88 1026.58 1197.56C1030.31 1202.33 1031.96 1204.67 1036.48 1208.66C1038.65 1210.58 1039.77 1210.84 1045.77 1210.84C1049.85 1210.84 1052.63 1210.49 1052.63 1210.49V1208.75H1050.63C1047.76 1208.75 1043.51 1204.93 1033.52 1193.48C1029.96 1189.4 1024.49 1182.71 1024.49 1182.71C1026.14 1181.85 1036.73 1176.3 1036.73 1165.89C1036.73 1158.95 1032.05 1152.01 1017.19 1152.01C1015.2 1152.01 1012.86 1152.09 1010.6 1152.09C1008.34 1152.19 1006.16 1152.26 1004.43 1152.26C1002.7 1152.26 999.568 1152.18 996.876 1152.09C994.1 1152.09 991.841 1152.01 991.841 1152.01V1153.74L994.279 1153.92C997.573 1154.18 999.483 1154.7 999.662 1158.07C999.831 1162.33 999.831 1172.22 999.831 1181.24C999.831 1189.91 999.831 1200.24 999.662 1204.49C999.483 1207.95 998.09 1208.13 995.926 1208.39L992.538 1208.74L992.547 1208.75ZM1007.92 1154.87C1011.56 1154.61 1011.21 1154.61 1014.34 1154.61C1023.29 1154.61 1027.8 1160.68 1027.8 1167.54C1027.8 1177.68 1022.5 1182.29 1017.72 1182.29C1016.68 1182.29 1013.12 1182.29 1007.92 1181.68V1154.87ZM1081.26 1153.75V1152.02C1081.26 1152.02 1079.17 1152.1 1076.57 1152.1C1073.97 1152.27 1070.84 1152.35 1068.76 1152.35C1066.58 1152.35 1063.99 1152.27 1061.81 1152.19C1059.73 1152.09 1058.17 1152.01 1058.17 1152.01V1153.74L1059.73 1153.92C1062.16 1154.18 1063.21 1155.13 1064.42 1156.6C1065.03 1157.22 1070.58 1165.2 1075.2 1171.26C1076.76 1173.35 1083.19 1182.71 1083.19 1182.71C1083.19 1191.04 1083.19 1200.41 1083.01 1204.41C1082.84 1207.87 1081.36 1208.04 1078.92 1208.31L1074.93 1208.74V1210.48L1079.87 1210.31C1082.56 1210.31 1085.69 1210.23 1087.43 1210.23C1089.16 1210.23 1092.2 1210.31 1094.89 1210.31L1099.67 1210.48V1208.74L1095.59 1208.31C1093.16 1208.04 1091.68 1207.44 1091.6 1204.41C1091.51 1199.98 1091.42 1189.4 1091.42 1180.2C1091.42 1180.2 1095.51 1174.65 1099.33 1169.79C1106.45 1160.68 1108.96 1157.03 1111.4 1155.31C1112.61 1154.43 1114.18 1153.92 1115.57 1153.83L1116.96 1153.74V1152.01C1116.96 1152.01 1115.74 1152.09 1114.01 1152.09C1112.27 1152.26 1110.1 1152.34 1108.19 1152.34C1106.37 1152.34 1103.85 1152.26 1101.76 1152.18C1099.67 1152.08 1098.12 1152 1098.12 1152V1153.73L1100.38 1153.82C1102.3 1153.91 1104.3 1154.42 1104.3 1156.59C1104.3 1158.76 1101.08 1163.02 1096.74 1168.65C1094.39 1171.69 1089.79 1177.76 1089.79 1177.76C1089.79 1177.76 1086.32 1172.9 1082.41 1167.52C1076.25 1158.93 1075.29 1157.54 1075.29 1155.9C1075.29 1154.33 1077.03 1154.07 1079.03 1153.91L1081.28 1153.73L1081.26 1153.75Z" fill="#727376"/>
<path d="M51.4978 1071.61C51.4978 1093.76 58.782 1098.63 79.176 1098.63C104.727 1098.63 123.851 1083.93 123.851 1051.62C123.851 1020.18 106.939 1002.97 68.9555 1002.97H51.4884V1071.61H51.4978ZM68.0614 996.756C102.534 996.756 112.755 983.151 112.755 958.526C112.755 936.694 101.669 917.41 72.287 917.41C66.2639 917.41 60.1184 918.012 57.3892 919.375C52.3166 920.983 51.5072 924.49 51.5072 935.538V996.756H68.0708H68.0614ZM96.2666 998.439C127.182 1003.28 152.122 1018.44 152.122 1048.24C152.122 1068.4 140.904 1084.38 123.794 1094.09C108.708 1102.59 89.9047 1105.69 68.4002 1105.69H0V1101.87C24.5255 1097.74 26.5583 1095.58 26.5583 1071.29V944.113C26.5583 920.748 23.462 918.915 0 914.721V910.904H78.0843C101.255 910.904 114.054 915.492 123.437 921.933C133.507 929.125 139.953 940.907 139.953 953.947C139.953 981.712 115.211 993.7 96.2666 998.439Z" fill="#727376"/>
<path d="M275.37 913.461C240.446 913.461 209.869 944.31 209.869 1002.66C209.869 1060.91 239.834 1103.02 285.431 1103.02C320.911 1103.02 349.813 1072.67 349.813 1014.78C349.813 950.431 318.793 913.452 275.37 913.452V913.461ZM281.318 906.71C333.851 906.71 379.627 947.385 379.627 1005.75C379.627 1068.64 334.614 1110.19 278.843 1110.19C223.336 1110.19 180.054 1066.71 180.054 1011.02C180.054 957.313 218.348 906.701 281.318 906.701V906.71Z" fill="#727376"/>
<path d="M551.314 1059.85C549.536 1069.22 542.957 1096.03 539.833 1105.69H400.962V1101.88C428.471 1098.23 430.014 1095.83 430.014 1071.03V944.808C430.014 919.855 426.918 917.974 403.286 914.712V910.894H480.091V914.712C458.558 918.463 454.944 920.015 454.944 944.808V1075.77C454.944 1096.61 458.935 1097.67 478.745 1097.67L499.101 1097.43C517.096 1097.43 523.975 1096.64 532.022 1086.01C537.508 1078.79 542.176 1069.4 546.854 1058.59L551.305 1059.85L551.314 1059.85Z" fill="#727376"/>
<path d="M714.711 1062.33C713.158 1072.33 707.587 1097.02 705.215 1105.69H562.721V1101.87C589.862 1098.11 591.782 1096.29 591.782 1071.33V946.717C591.782 920.729 590.578 918.99 566.975 914.712V910.904H655.731C683.042 910.904 692.83 910.847 698.109 910.302C698.166 920.945 699.408 942.101 700.443 951.54L696.001 952.199C693.771 944.46 689.498 933.667 685.734 928.091C679.899 920.024 675.617 919.15 657.34 919.15H625.493C617.465 919.15 616.722 920.099 616.722 928.063V997.978H653.623C675.306 997.978 677.668 991.735 681.574 972.31H685.771V1032.14H681.574C676.229 1012.3 674.535 1006.47 654.131 1006.47H616.722V1074C616.722 1096.19 624.43 1097.64 642.104 1097.68H670.525C686.016 1097.68 690.355 1094.93 698.091 1084.14C702.909 1077.65 706.834 1070.03 710.57 1061.42L714.72 1062.33H714.711Z" fill="#727376"/>
<path d="M799.345 1009.39C814.714 1009.39 823.278 1008.69 831.72 1002.53C843.427 994.246 847.907 982.286 847.907 964.403C847.907 931.363 828.181 917.307 804.672 917.307C794.367 917.307 789.012 918.397 786.64 919.892C783.967 921.641 782.735 924.227 782.735 933.168V1009.38H799.345V1009.39ZM914.82 1107.31C912.505 1107.31 904.854 1107.31 902.407 1107.05C874.38 1105.56 867.51 1101.86 855.454 1085.74C845.13 1071.52 831.202 1048.84 820.539 1030.76C812.709 1017.69 809.086 1015.55 794.235 1015.55H782.735V1071.74C782.735 1095.19 785.097 1098.32 809.537 1101.89V1105.72H731.35V1101.89C755.282 1098.08 757.889 1095.79 757.889 1071.74V944.338C757.889 920.88 755.781 918.576 731.35 914.731V910.923H807.034C830.393 910.923 845.384 913.621 856.8 921.566C868.065 928.872 875.641 942.138 875.641 958.658C875.641 984.251 857.384 1000.69 836.058 1009.68C841.724 1019.49 856.358 1043.13 865.543 1056.62C876.291 1072.69 883.622 1083.11 890.68 1090.66C898.322 1098.74 903.169 1100.94 915.498 1103.61L914.829 1107.32L914.82 1107.31Z" fill="#727376"/>
<path d="M1012.75 916.489C977.828 916.489 947.242 947.338 947.242 1005.68C947.242 1063.93 977.207 1106.04 1022.81 1106.04C1058.29 1106.04 1087.19 1075.69 1087.19 1017.81C1087.19 953.449 1056.18 916.479 1012.75 916.479V916.489ZM1018.7 909.738C1071.23 909.738 1117 950.412 1117 1008.78C1117 1071.66 1072 1113.21 1016.22 1113.21C960.709 1113.21 917.427 1069.74 917.427 1014.05C917.427 960.341 955.712 909.729 1018.7 909.729V909.738Z" fill="#727376"/>
</g>
<defs>
<clipPath id="clip0_1560_452">
<rect width="1117" height="1213" fill="white"/>
</clipPath>
</defs>
</svg>
