<svg width="56" height="74" viewBox="0 0 56 74" fill="none" xmlns="http://www.w3.org/2000/svg">
<path d="M34.9869 40.006C34.9869 41.978 34.5578 43.4727 33.6855 44.487C32.8132 45.5102 31.7113 46.1652 30.3468 46.453C28.9902 46.7409 27.3339 46.8917 25.3768 46.8917H22.4762V33.7426C22.8421 33.7426 23.4347 33.7317 24.2608 33.7148C25.079 33.689 25.7146 33.6781 26.1478 33.6781C27.8522 33.6781 29.3341 33.8289 30.6135 34.1276C31.8918 34.4274 32.9365 35.0308 33.7627 35.9677C34.5808 36.8897 34.9869 38.2394 34.9869 40.006ZM48.5223 55.7078C47.669 56.8193 46.4358 57.6808 45.1344 58.5968C44.7614 58.8549 44.3965 59.1149 44.0987 59.3322C39.3232 62.6054 34.1627 65.9629 27.5394 70.1054C21.9548 66.5802 16.2419 62.9508 10.7977 59.1943L9.82011 58.5045C5.17397 55.2205 2.8148 50.5847 2.8148 45.2234L2.80778 23.4061C2.79575 16.4231 2.78873 9.44508 2.79575 2.46807H52.2761L52.2831 45.2274C52.2831 48.7943 50.8814 52.7463 48.5233 55.7078H48.5223ZM55.0704 0.317399H0.00846657V1.22451C-0.0105832 8.76723 0.00846657 16.307 0.00846657 23.8537L0.0134815 45.8258C0.0204998 52.0892 3.03538 57.383 8.12969 61.0125L9.07717 61.6824C14.9595 65.7505 20.9963 69.5635 27.0401 73.3726L27.5284 73.6833L28.0227 73.3726C34.0073 69.6459 39.9438 65.8488 45.76 61.862C46.128 61.598 46.4709 61.3559 46.8128 61.1147C52.0785 57.4347 55.0824 52.1468 55.0824 45.7395L55.0704 0.316406V0.317399ZM42.9948 46.0283C42.1857 47.7949 41.0237 49.231 39.5047 50.3356C38.0399 51.3886 36.4176 52.0734 34.635 52.3781C32.8373 52.6768 30.6756 52.8257 28.148 52.8257H10.8678C12.2585 51.8372 13.1418 50.7742 13.5238 49.6349C13.9008 48.5074 14.0933 47.0058 14.0933 45.1579V19.6367C14.0933 18.0378 14.0391 16.7506 13.9339 15.7611C13.8145 14.7726 13.5238 13.7812 13.0526 12.8046C12.5743 11.828 11.8614 10.9765 10.8678 10.249H28.927C31.2702 10.249 33.494 10.6251 35.5885 11.3724C37.6849 12.1128 39.3814 13.2819 40.6968 14.8907C42.0032 16.4965 42.6589 18.5043 42.6589 20.915C42.6589 22.5932 42.3682 24.0204 41.7806 25.1637C41.1901 26.3269 40.3649 27.2806 39.2951 28.0419C38.2263 28.8051 36.8778 29.4938 35.2556 30.1121C37.8674 30.6451 40.017 31.836 41.6934 33.688C43.3738 35.531 44.211 37.7611 44.211 40.3782C44.211 42.381 43.7979 44.2607 42.9958 46.0263L42.9948 46.0283ZM51.3486 3.6362H3.70713C3.70713 10.3135 3.72117 16.9868 3.72117 23.6641L3.72518 45.4884C3.72518 50.6978 6.08435 54.9892 10.3555 58.0271L11.314 58.711C16.6239 62.3712 22.0751 65.8428 27.5374 69.2886C32.9415 65.9004 38.3096 62.4565 43.5452 58.8549C43.8972 58.6028 44.2421 58.3606 44.598 58.1145C45.6909 57.3463 46.9612 56.4849 47.7933 55.4041C49.962 52.6817 51.3547 48.9511 51.3547 45.4884L51.3476 3.63719L51.3486 3.6362ZM34.279 21.9442C34.279 24.337 33.4579 25.9041 31.8266 26.6365C30.1944 27.368 27.9796 27.7441 25.1853 27.7441H22.4772V16.2494C22.8191 16.2494 23.4006 16.2405 24.1957 16.2216C24.9928 16.1978 25.6044 16.1869 26.0214 16.1869C28.5491 16.1869 30.5603 16.572 32.0542 17.3381C33.5361 18.1013 34.279 19.6377 34.279 21.9442Z" fill="white"/>
</svg>
