<svg width="41" height="40" viewBox="0 0 41 40" fill="none" xmlns="http://www.w3.org/2000/svg">
<ellipse cx="12.9962" cy="27.501" rx="2.50104" ry="2.50104" stroke="white" stroke-opacity="0.8" stroke-width="2" stroke-linecap="round" stroke-linejoin="round"/>
<path fill-rule="evenodd" clip-rule="evenodd" d="M6.74471 18.9592L21.1687 7.39369C21.8845 6.82757 22.7969 6.57107 23.7029 6.68129C30.4375 7.47179 35.5119 13.1819 35.5057 19.9627V31.6608C35.5078 33.5046 34.0148 35.001 32.1709 35.0031H8.82789C6.98408 35.001 5.49108 33.5046 5.49317 31.6608V21.5692C5.49317 20.5544 5.95325 19.5943 6.74471 18.9592Z" stroke="white" stroke-opacity="0.8" stroke-width="2" stroke-linecap="round" stroke-linejoin="round"/>
<path fill-rule="evenodd" clip-rule="evenodd" d="M28.8365 35.0078H24.6681C23.7473 35.0078 23.0008 34.2613 23.0008 33.3405V32.9236C23.0008 30.8517 24.6804 29.172 26.7523 29.172V29.172C28.8243 29.172 30.5039 30.8517 30.5039 32.9236V33.3405C30.5039 34.2613 29.7574 35.0078 28.8365 35.0078Z" stroke="white" stroke-opacity="0.8" stroke-width="2" stroke-linecap="round" stroke-linejoin="round"/>
<path d="M35.5061 19.9977L5.88965 19.9978" stroke="white" stroke-opacity="0.8" stroke-width="2" stroke-linecap="round" stroke-linejoin="round"/>
<path fill-rule="evenodd" clip-rule="evenodd" d="M20.9164 20H24.2511C25.172 20 25.9185 20.7465 25.9185 21.6674V21.6674C25.9185 23.5091 24.4255 25.0021 22.5837 25.0021V25.0021C20.742 25.0021 19.249 23.5091 19.249 21.6674V21.6674C19.249 20.7465 19.9955 20 20.9164 20Z" stroke="white" stroke-opacity="0.8" stroke-width="2" stroke-linecap="round" stroke-linejoin="round"/>
</svg>
