<svg width="40" height="41" viewBox="0 0 40 41" fill="none" xmlns="http://www.w3.org/2000/svg">
<path d="M20.9375 16.2589C21.9041 16.2458 22.8753 16.6039 23.6131 17.3417" stroke="white" stroke-width="2" stroke-linecap="round" stroke-linejoin="round"/>
<path d="M26.2644 14.691C24.7934 13.2201 22.865 12.4841 20.9375 12.4841" stroke="white" stroke-width="2" stroke-linecap="round" stroke-linejoin="round"/>
<rect y="0.955811" width="40" height="40" rx="8" fill="#3C3F49"/>
<path fill-rule="evenodd" clip-rule="evenodd" d="M26.5293 25.2777L25.4296 24.178C24.8802 23.6286 23.9896 23.6286 23.4411 24.178L22.5768 25.0423C22.3836 25.2355 22.0911 25.3002 21.8418 25.1905C20.5893 24.642 19.3518 23.8105 18.2483 22.707C17.1496 21.6083 16.3208 20.3764 15.7714 19.1286C15.6571 18.8708 15.7236 18.568 15.9233 18.3683L16.6977 17.5939C17.3268 16.9648 17.3268 16.0752 16.7774 15.5258L15.6777 14.4261C14.9455 13.6939 13.7586 13.6939 13.0264 14.4261L12.4152 15.0364C11.7205 15.7311 11.4308 16.7333 11.6183 17.727C12.0814 20.1767 13.5046 22.8589 15.8005 25.1548C18.0964 27.4508 20.7786 28.8739 23.2283 29.337C24.2221 29.5245 25.2243 29.2348 25.9189 28.5402L26.5293 27.9298C27.2614 27.1977 27.2614 26.0108 26.5293 25.2777V25.2777Z" stroke="white" stroke-width="1.5" stroke-linecap="round" stroke-linejoin="round"/>
<path d="M24.6961 20.0182C24.7092 19.0516 24.3511 18.0803 23.6133 17.3425" stroke="white" stroke-width="1.5" stroke-linecap="round" stroke-linejoin="round"/>
<path d="M26.2656 14.6912C27.7366 16.1621 28.4725 18.0905 28.4725 20.018" stroke="white" stroke-width="1.5" stroke-linecap="round" stroke-linejoin="round"/>
</svg>
