<svg width="40" height="41" viewBox="0 0 40 41" fill="none" xmlns="http://www.w3.org/2000/svg">
<rect y="0.955811" width="40" height="40" rx="12" fill="#3C3F49"/>
<path d="M22.8597 23.7683H25.2118C26.019 23.7683 26.7353 24.2849 26.9903 25.0508L27.6156 26.9258C28.0206 28.1399 27.1168 29.3933 25.8372 29.3933H14.1653C12.8856 29.3933 11.9818 28.1399 12.3868 26.9258L13.0121 25.0508C13.2662 24.2849 13.9834 23.7683 14.7906 23.7683H17.1437" stroke="white" stroke-width="1.5" stroke-linecap="round" stroke-linejoin="round"/>
<path fill-rule="evenodd" clip-rule="evenodd" d="M20 26.5808C20 26.5808 14.375 22.0883 14.375 17.9867C14.375 14.9671 16.8931 12.5183 20 12.5183C23.1069 12.5183 25.625 14.9671 25.625 17.9867C25.625 22.0883 20 26.5808 20 26.5808Z" stroke="white" stroke-width="1.5" stroke-linecap="round" stroke-linejoin="round"/>
<path d="M21.3258 16.8175C22.0581 17.5497 22.0581 18.7369 21.3258 19.4691C20.5936 20.2014 19.4064 20.2014 18.6742 19.4691C17.9419 18.7369 17.9419 17.5497 18.6742 16.8175C19.4064 16.0853 20.5936 16.0853 21.3258 16.8175" stroke="white" stroke-width="1.5" stroke-linecap="round" stroke-linejoin="round"/>
</svg>
