<svg width="40" height="41" viewBox="0 0 40 41" fill="none" xmlns="http://www.w3.org/2000/svg">
<rect y="0.955811" width="40" height="40" rx="12" fill="#3C3F49"/>
<path fill-rule="evenodd" clip-rule="evenodd" d="M23.1627 21.6289L27.3871 18.7649C28.0443 18.3205 28.4371 17.5789 28.4371 16.7858V16.7858C28.4371 15.4639 27.3665 14.3933 26.0455 14.3933H13.9677C12.6468 14.3933 11.5762 15.4639 11.5762 16.7849V16.7849C11.5762 17.578 11.969 18.3196 12.6262 18.7649L16.8505 21.6289C18.7565 22.9208 21.2568 22.9208 23.1627 21.6289V21.6289Z" stroke="white" stroke-width="1.5" stroke-linecap="round" stroke-linejoin="round"/>
<path d="M11.5625 16.7847V25.6431C11.5625 27.1965 12.8216 28.4556 14.375 28.4556H25.625C27.1784 28.4556 28.4375 27.1965 28.4375 25.6431V16.7856" stroke="white" stroke-width="1.5" stroke-linecap="round" stroke-linejoin="round"/>
</svg>
