<svg width="24" height="25" viewBox="0 0 24 25" fill="none" xmlns="http://www.w3.org/2000/svg">
<path fill-rule="evenodd" clip-rule="evenodd" d="M7.496 3.95581H16.505C18.987 3.95581 21 5.96781 21 8.45181V17.4608C21 19.9428 18.988 21.9558 16.504 21.9558H7.496C5.013 21.9558 3 19.9438 3 17.4598V8.45181C3 5.96881 5.012 3.95581 7.496 3.95581V3.95581Z" stroke="#D2AE6D" stroke-width="1.5" stroke-linecap="round" stroke-linejoin="round"/>
<path d="M16.9487 7.66882C16.7627 7.66982 16.6117 7.82082 16.6117 8.00682C16.6117 8.19282 16.7637 8.34382 16.9497 8.34382C17.1357 8.34382 17.2867 8.19282 17.2867 8.00682C17.2877 7.81982 17.1357 7.66882 16.9487 7.66882" stroke="#D2AE6D" stroke-width="1.5" stroke-linecap="round" stroke-linejoin="round"/>
<path d="M14.546 10.4102C15.9519 11.8161 15.9519 14.0955 14.546 15.5014C13.1401 16.9073 10.8607 16.9073 9.45481 15.5014C8.04892 14.0955 8.04892 11.8161 9.45481 10.4102C10.8607 9.00433 13.1401 9.00433 14.546 10.4102" stroke="#D2AE6D" stroke-width="1.5" stroke-linecap="round" stroke-linejoin="round"/>
</svg>
