<svg width="40" height="40" viewBox="0 0 40 40" fill="none" xmlns="http://www.w3.org/2000/svg">
<path d="M12.7851 22.1484C13.5442 22.4908 14.2338 22.97 14.8193 23.5621C16.7214 25.4642 17.2386 28.0387 15.9686 29.3087C14.6986 30.5787 12.1243 30.0615 10.2222 28.1594C9.63014 27.5738 9.15096 26.8842 8.80859 26.1251" stroke="white" stroke-width="1.5" stroke-linecap="round" stroke-linejoin="round"/>
<path d="M4.47623 27.0082C2.5713 25.1032 3.08617 21.5024 5.62551 18.963C8.16485 16.4236 11.7667 15.9098 13.6704 17.8137V17.8137C14.6225 18.7658 14.6225 20.3095 13.6704 21.2616L7.92407 27.0082C7.46687 27.4655 6.84675 27.7223 6.20015 27.7223C5.55355 27.7223 4.93343 27.4655 4.47623 27.0082V27.0082" stroke="white" stroke-width="1.5" stroke-linecap="round" stroke-linejoin="round"/>
<path d="M26.1884 12.789C25.846 13.5481 25.3668 14.2377 24.7747 14.8232C22.8726 16.7253 20.2981 17.2425 19.0281 15.9725C17.7581 14.7025 18.2753 12.1282 20.1774 10.2261C20.763 9.63405 21.4526 9.15486 22.2117 8.8125" stroke="white" stroke-width="1.5" stroke-linecap="round" stroke-linejoin="round"/>
<path d="M21.3274 4.47818C23.2324 2.57326 26.8332 3.08812 29.3726 5.62746C31.9121 8.1668 32.4258 11.7686 30.5219 13.6724V13.6724C29.5698 14.6245 28.0261 14.6245 27.074 13.6724L21.3274 7.92602C20.8702 7.46882 20.6133 6.8487 20.6133 6.2021C20.6133 5.5555 20.8702 4.93539 21.3274 4.47818V4.47818" stroke="white" stroke-width="1.5" stroke-linecap="round" stroke-linejoin="round"/>
<path d="M29.8204 31.8222C29.3924 32.7711 28.7934 33.633 28.0534 34.365C25.6757 36.7426 22.4576 37.389 20.8701 35.8016C19.2826 34.2141 19.9291 30.9962 22.3067 28.6186C23.0387 27.8785 23.9007 27.2795 24.8496 26.8516" stroke="white" stroke-width="1.5" stroke-linecap="round" stroke-linejoin="round"/>
<path d="M23.7432 21.4376C26.1245 19.0564 30.6255 19.7 33.7998 22.8742C36.974 26.0483 37.6162 30.5507 35.2364 32.9304V32.9304C34.0462 34.1205 32.1166 34.1205 30.9265 32.9304L23.7432 25.7474C23.1717 25.1759 22.8506 24.4007 22.8506 23.5925C22.8506 22.7842 23.1717 22.0091 23.7432 21.4376V21.4376" stroke="white" stroke-width="1.5" stroke-linecap="round" stroke-linejoin="round"/>
</svg>
