<svg width="24" height="24" viewBox="0 0 24 24" fill="none" xmlns="http://www.w3.org/2000/svg">
<path d="M21.7572 8.4955L20.2728 10.0127L20.281 17.4779C20.281 19.0265 19.0217 20.2873 17.4726 20.2873H3.71364V6.53158C3.71364 4.98295 4.97469 3.72221 6.5237 3.72221H14.79L16.1984 2.36881L14.1347 0.0078125H6.5237C2.9259 0.0078125 0 2.93466 0 6.52993V24H17.4743C21.0721 24 23.998 21.0732 23.998 17.4779V11.0666L21.7589 8.4955H21.7572Z" fill="url(#paint0_linear_1527_2759)"/>
<path d="M13.3582 14.0821L11.978 15.462C11.5659 15.8756 10.8907 15.8756 10.4769 15.462L4.77905 9.76545C4.36532 9.35347 4.36532 8.67843 4.77905 8.2648L6.15925 6.88493C6.57298 6.4713 7.24819 6.4713 7.66026 6.88493L10.8824 10.1063L13.3582 12.5814C13.7719 12.9951 13.7719 13.6685 13.3582 14.0821Z" fill="url(#paint1_linear_1527_2759)"/>
<path d="M24.0002 8.33386L21.7511 5.82891L13.3557 14.0817C13.7694 13.668 13.7694 12.9946 13.3557 12.581L12.2535 11.4791C11.853 11.7571 11.436 11.9655 11.1017 11.9457C10.1468 11.8894 9.8208 11.135 9.8208 11.135L10.8833 10.1075H10.8816L18.6663 2.3478L16.5282 0.00169472H23.09C23.6741 -0.0247776 24.0333 0.261454 23.9919 0.680048L24.0002 8.3322V8.33386Z" fill="url(#paint2_linear_1527_2759)"/>
<path d="M23.7495 7.68042L21.9371 5.66189L21.7624 5.46727L21.5759 5.65063L13.9082 13.188C13.877 12.9015 13.7517 12.6234 13.5325 12.4042L12.4303 11.3023L12.2826 11.1546L12.111 11.2737C11.9189 11.4071 11.7295 11.5189 11.554 11.5944C11.3759 11.671 11.2292 11.7028 11.1165 11.6961L11.1164 11.6961C10.709 11.6721 10.4433 11.5015 10.2776 11.3401C10.2186 11.2827 10.1721 11.2261 10.1367 11.1772L11.0571 10.2872L11.5014 9.8575H11.4865L18.8428 2.52487L19.0122 2.3561L18.8511 2.17941L17.0943 0.251695H23.09V0.251951L23.1013 0.251438C23.3543 0.239972 23.5262 0.29806 23.6236 0.372542C23.7123 0.440395 23.7553 0.5321 23.7431 0.655458L23.7419 0.667858L23.7419 0.680318L23.7495 7.68042Z" stroke="black" stroke-opacity="0.1" stroke-width="0.5"/>
<defs>
<linearGradient id="paint0_linear_1527_2759" x1="-1.44143" y1="26.3809" x2="19.0594" y2="4.44028" gradientUnits="userSpaceOnUse">
<stop offset="0.29" stop-color="white"/>
<stop offset="0.92" stop-color="white"/>
</linearGradient>
<linearGradient id="paint1_linear_1527_2759" x1="4.53743" y1="5.17085" x2="12.2139" y2="15.3479" gradientUnits="userSpaceOnUse">
<stop stop-color="white"/>
<stop offset="0.16" stop-color="white"/>
<stop offset="0.4" stop-color="white"/>
<stop offset="0.69" stop-color="white"/>
<stop offset="1" stop-color="white"/>
</linearGradient>
<linearGradient id="paint2_linear_1527_2759" x1="9.82246" y1="7.04168" x2="24.0002" y2="7.04168" gradientUnits="userSpaceOnUse">
<stop stop-color="white"/>
<stop offset="0.16" stop-color="white"/>
<stop offset="0.4" stop-color="white"/>
<stop offset="0.69" stop-color="white"/>
<stop offset="1" stop-color="white"/>
</linearGradient>
</defs>
</svg>
