<svg width="41" height="40" viewBox="0 0 41 40" fill="none" xmlns="http://www.w3.org/2000/svg">
<path fill-rule="evenodd" clip-rule="evenodd" d="M18.4225 35.0069H22.5775C23.4166 35.0065 24.1388 34.4141 24.3032 33.5913L25.2436 28.8877C25.5552 27.3289 26.9237 26.2068 28.5133 26.2066H29.247C32.1545 26.2569 34.663 24.1763 35.1511 21.3096C35.4982 18.8999 34.2745 16.5363 32.1065 15.4288C33.7964 13.9946 34.0274 11.4716 32.626 9.75447C31.2245 8.03731 28.7064 7.75794 26.9627 9.12616C26.5957 5.83394 23.8126 3.34375 20.5 3.34375C17.1874 3.34375 14.4042 5.83394 14.0373 9.12616C12.2935 7.75794 9.77544 8.03731 8.374 9.75447C6.97256 11.4716 7.20354 13.9946 8.89348 15.4288C6.51629 16.6441 5.30145 19.3469 5.9706 21.9315C6.69943 24.5067 9.0773 26.2634 11.753 26.2033H12.4866C14.0773 26.2038 15.4462 27.3276 15.7563 28.8877L16.6967 33.5913C16.8612 34.4141 17.5834 35.0065 18.4225 35.0069Z" stroke="white" stroke-opacity="0.8" stroke-width="2" stroke-linecap="round" stroke-linejoin="round"/>
</svg>
