<svg width="518" height="696" viewBox="0 0 518 696" fill="none" xmlns="http://www.w3.org/2000/svg">
<path d="M328.406 376.007C328.406 394.689 324.378 408.849 316.191 418.458C308.003 428.152 297.66 434.357 284.851 437.084C272.118 439.811 256.571 441.24 238.2 441.24H210.974V316.669C214.409 316.669 219.971 316.566 227.726 316.406C235.405 316.161 241.372 316.058 245.438 316.058C261.437 316.058 275.346 317.487 287.355 320.317C299.354 323.157 309.16 328.873 316.915 337.749C324.595 346.484 328.406 359.271 328.406 376.007ZM455.457 524.76C447.448 535.291 435.872 543.452 423.656 552.13C420.156 554.575 416.73 557.038 413.935 559.097C369.11 590.106 320.67 621.914 258.5 661.159C206.08 627.762 152.455 593.378 101.353 557.79L92.177 551.256C48.5657 520.144 26.4213 476.226 26.4213 425.435L26.3554 218.744C26.2425 152.59 26.1766 86.4822 26.2425 20.3842H490.692L490.758 425.472C490.758 459.264 477.601 496.704 455.466 524.76H455.457ZM516.921 0.00940228H0.0794719V8.60309C-0.0993399 80.0604 0.0794719 151.49 0.0794719 222.985L0.126545 431.142C0.192423 490.48 28.4917 540.631 76.3098 575.015L85.2033 581.362C140.419 619.902 197.083 656.025 253.813 692.111L258.397 695.054L263.036 692.111C319.212 656.806 374.935 620.833 429.529 583.064C432.983 580.563 436.202 578.269 439.411 575.984C488.838 541.12 517.034 491.025 517.034 430.324L516.921 0V0.00940228ZM403.573 433.06C395.978 449.796 385.071 463.401 370.813 473.866C357.063 483.842 341.836 490.329 325.103 493.216C308.229 496.046 287.938 497.456 264.213 497.456H102.012C115.065 488.091 123.356 478.022 126.942 467.228C130.48 456.547 132.287 442.321 132.287 424.814V183.034C132.287 167.887 131.779 155.692 130.791 146.318C129.671 136.954 126.942 127.561 122.519 118.309C118.029 109.057 111.338 100.99 102.012 94.0981H271.525C293.519 94.0981 314.393 97.6615 334.053 104.741C353.732 111.756 369.655 122.831 382.003 138.073C394.265 153.285 400.42 172.306 400.42 195.144C400.42 211.044 397.691 224.564 392.176 235.396C386.633 246.415 378.888 255.451 368.846 262.662C358.814 269.893 346.156 276.418 330.928 282.275C355.445 287.324 375.622 298.607 391.357 316.152C407.131 333.612 414.989 354.739 414.989 379.533C414.989 398.506 411.111 416.314 403.583 433.041L403.573 433.06ZM481.987 31.4506H34.7972C34.7972 94.7092 34.929 157.93 34.929 221.189L34.9666 427.945C34.9666 477.298 57.111 517.953 97.2025 546.733L106.2 553.212C156.041 587.887 207.209 620.776 258.481 653.421C309.207 621.322 359.595 588.696 408.74 554.575C412.043 552.187 415.281 549.893 418.622 547.561C428.88 540.283 440.804 532.122 448.615 521.883C468.971 496.093 482.043 460.75 482.043 427.945L481.977 31.46L481.987 31.4506ZM321.762 204.895C321.762 227.563 314.054 242.41 298.742 249.349C283.421 256.278 262.632 259.842 236.403 259.842H210.983V150.944C214.193 150.944 219.651 150.86 227.114 150.681C234.596 150.455 240.337 150.352 244.252 150.352C267.977 150.352 286.856 154 300.879 161.259C314.788 168.489 321.762 183.044 321.762 204.895Z" fill="white"/>
</svg>
